<svg id="Lager_1" data-name="Lager 1" xmlns="http://www.w3.org/2000/svg" viewBox="0 0 141.4 141.4"><defs><style>.cls-1,.cls-2,.cls-3{fill:#f4dad7;}.cls-1{stroke:#f4dad7;}.cls-1,.cls-2{stroke-miterlimit:10;}.cls-2,.cls-3{stroke:#be9891;}.cls-3{stroke-miterlimit:10;}.cls-13,.cls-4,.cls-5{isolation:isolate;}.cls-13,.cls-5{font-size:10px;fill:#be9891;font-family:SourceSerifPro-Regular, Source Serif Pro;}.cls-5{letter-spacing:0.05em;}.cls-6{letter-spacing:0.12em;}.cls-7{letter-spacing:0.13em;}.cls-8{letter-spacing:0.05em;}.cls-9{letter-spacing:0.13em;}.cls-10{letter-spacing:0.11em;}.cls-11,.cls-13{letter-spacing:0.1em;}.cls-12{letter-spacing:0.12em;}.cls-14{letter-spacing:0.06em;}.cls-15{letter-spacing:0.1em;}</style></defs><g id="Logo"><path id="Path_1" data-name="Path 1" class="cls-1" d="M156.2,85.72l-20.84,20.84-28.65-.26v28.91l-20.5,20.5,20.5,20.5v29.07h29.88l19.62,20.42,20.42-20.42H205.7l.08-29.15,20.42-20.42-20.5-20.5V106.3l-27.95.26Z" transform="translate(-85.5 -85.01)"/><rect id="Rectangle_5" data-name="Rectangle 5" class="cls-2" x="31.59" y="32.18" width="77.88" height="77.88"/><rect id="Rectangle_6" data-name="Rectangle 6" class="cls-3" x="117.1" y="116.94" width="77.88" height="77.88" transform="translate(-150.02 70.98) rotate(-45)"/><g id="Company_name" data-name="Company name"><g id="FANTASTIC" class="cls-4"><text class="cls-5" transform="translate(37.94 69.17)">F<tspan class="cls-6" x="6.32" y="0">A</tspan><tspan class="cls-7" x="14.11" y="0">N</tspan><tspan class="cls-8" x="22.71" y="0">T</tspan><tspan class="cls-9" x="29.3" y="0">A</tspan><tspan class="cls-10" x="37.19" y="0">S</tspan><tspan class="cls-9" x="43.46" y="0">T</tspan><tspan class="cls-11" x="50.75" y="0">I</tspan><tspan class="cls-12" x="55.47" y="0">C</tspan></text></g><g id="BEAUTY" class="cls-4"><text class="cls-13" transform="translate(45.22 80.46)">B<tspan class="cls-9" x="7.3" y="0">E</tspan><tspan class="cls-14" x="14.58" y="0">A</tspan><tspan class="cls-10" x="21.78" y="0">U</tspan><tspan class="cls-12" x="30.2" y="0">T</tspan><tspan class="cls-15" x="37.49" y="0">Y</tspan></text></g></g></g></svg>